<?xml version="1.0" standalone="no"?>
<!DOCTYPE svg PUBLIC "-//W3C//DTD SVG 20010904//EN"
 "http://www.w3.org/TR/2001/REC-SVG-20010904/DTD/svg10.dtd">
<svg version="1.0" xmlns="http://www.w3.org/2000/svg"
 width="600.000000pt" height="600.000000pt" viewBox="0 0 600.000000 600.000000"
 preserveAspectRatio="xMidYMid meet">
<metadata>
Created by potrace 1.14, written by Peter Selinger 2001-2017
</metadata>
<g transform="translate(0.000000,600.000000) scale(0.100000,-0.100000)"
fill="#000000" stroke="none">
<path d="M2857 5944 c-1 -1 -40 -5 -87 -8 -47 -3 -94 -8 -106 -10 -11 -2 -46
-7 -76 -10 -133 -14 -357 -69 -538 -130 -410 -141 -818 -393 -1109 -687 -78
-79 -159 -167 -201 -219 -25 -30 -47 -57 -50 -60 -15 -14 -182 -255 -193 -280
-4 -8 -16 -28 -27 -45 -123 -191 -293 -624 -337 -855 -2 -13 -10 -53 -18 -90
-7 -36 -16 -92 -20 -125 -4 -33 -9 -71 -11 -85 -22 -135 -22 -607 1 -672 2 -7
6 -35 9 -63 21 -209 106 -519 207 -755 50 -117 164 -330 236 -440 159 -241
295 -400 523 -609 144 -133 405 -310 615 -418 187 -96 506 -213 652 -238 18
-3 43 -9 56 -14 14 -6 27 -8 30 -5 2 2 15 1 28 -4 13 -5 48 -12 78 -16 30 -4
64 -8 75 -11 78 -16 243 -27 411 -27 259 -1 418 18 725 87 135 30 530 179 600
225 8 6 29 17 45 24 95 44 336 202 460 301 448 359 785 842 958 1371 34 104
84 288 93 344 3 14 9 48 14 75 5 28 12 73 16 100 3 28 8 59 10 70 22 113 21
564 -1 695 -52 315 -52 316 -104 487 -129 429 -368 849 -652 1148 -26 28 -65
68 -86 90 -181 190 -487 412 -752 544 -245 123 -566 232 -781 266 -25 4 -54 9
-65 11 -11 3 -39 7 -61 10 -23 2 -51 6 -61 8 -66 13 -495 30 -506 20z"/>
</g>
</svg>
