<?xml version="1.0" standalone="no"?>
<!DOCTYPE svg PUBLIC "-//W3C//DTD SVG 20010904//EN"
 "http://www.w3.org/TR/2001/REC-SVG-20010904/DTD/svg10.dtd">
<svg version="1.0" xmlns="http://www.w3.org/2000/svg"
 width="600.000000pt" height="600.000000pt" viewBox="0 0 600.000000 600.000000"
 preserveAspectRatio="xMidYMid meet">
<metadata>
Created by potrace 1.14, written by Peter Selinger 2001-2017
</metadata>
<g transform="translate(0.000000,600.000000) scale(0.100000,-0.100000)"
fill="#000000" stroke="none">
<path d="M2685 5960 c-922 -102 -1729 -607 -2208 -1381 -368 -595 -514 -1305
-411 -1992 182 -1217 1096 -2193 2295 -2451 221 -48 345 -60 619 -60 274 0
398 12 619 60 279 60 563 166 805 301 1387 774 1918 2490 1209 3907 -290 580
-747 1035 -1328 1321 -299 148 -562 230 -899 281 -119 18 -579 27 -701 14z
m2539 -1841 l-97 -97 2 -313 c2 -352 -7 -455 -43 -535 -30 -65 -104 -141 -168
-172 -55 -27 -164 -52 -228 -52 -59 0 -168 24 -223 48 -57 25 -121 83 -154
140 l-26 44 -569 -569 -568 -568 0 -242 0 -243 125 0 125 0 0 -80 0 -80 -350
0 -350 0 0 80 0 80 140 0 140 0 0 157 0 158 -225 -225 c-124 -124 -225 -230
-225 -237 0 -7 -6 -13 -13 -13 -7 0 -46 -34 -87 -75 l-75 -75 -85 84 c-47 46
-99 91 -116 99 -34 18 -94 81 -94 100 0 6 -310 322 -690 702 l-690 690 215
215 215 215 0 397 0 398 -180 0 -180 0 0 110 0 110 485 0 485 0 0 -110 0 -110
-180 0 -180 0 0 -387 0 -388 497 -497 498 -498 377 377 378 378 0 618 0 619
268 -4 c245 -4 272 -6 327 -27 138 -50 221 -138 265 -278 l16 -52 384 384 385
385 282 -282 283 -283 -96 -96z m-2723 257 c116 -25 196 -75 252 -159 64 -95
67 -116 67 -549 0 -368 -1 -392 -21 -451 -49 -146 -159 -232 -332 -259 -216
-33 -419 66 -489 240 -23 56 -23 61 -23 472 0 411 0 416 23 472 29 71 103 155
171 192 96 52 229 68 352 42z m2279 -2076 l0 -110 150 0 150 0 0 -80 0 -80
-150 0 -150 0 0 -215 c0 -272 -11 -255 165 -255 l125 0 0 -81 0 -81 -158 4
c-156 3 -159 3 -208 33 -37 23 -56 44 -76 84 l-28 55 0 228 0 228 -110 0 -110
0 0 80 0 80 110 0 110 0 0 110 0 110 90 0 90 0 0 -110z m-724 -118 c84 -29
140 -88 158 -164 l6 -28 -89 0 c-80 0 -92 2 -101 20 -20 38 -66 52 -152 48
-73 -3 -82 -6 -104 -31 -31 -36 -31 -81 -1 -111 17 -17 44 -27 98 -35 156 -25
218 -42 266 -74 69 -46 88 -85 88 -178 0 -67 -4 -81 -30 -125 -24 -38 -44 -56
-90 -79 -59 -29 -63 -30 -210 -30 -139 0 -154 2 -199 24 -68 34 -113 82 -129
139 -8 26 -13 50 -10 55 2 4 42 7 87 7 83 0 84 0 96 -29 16 -39 72 -61 156
-61 107 0 158 34 156 103 -1 33 -26 65 -60 78 -12 5 -68 16 -125 25 -128 20
-194 45 -234 86 -42 43 -53 76 -53 151 1 103 46 172 135 205 49 18 65 20 180
21 81 0 124 -4 161 -17z"/>
<path d="M3350 3764 l0 -389 200 200 200 200 0 105 c0 112 -14 161 -59 207
-45 48 -79 57 -213 61 l-128 4 0 -388z"/>
<path d="M4688 3583 c-215 -215 -211 -209 -187 -298 29 -103 158 -153 279
-107 49 19 84 61 100 123 6 22 9 131 8 258 l-3 221 -197 -197z"/>
<path d="M2295 4162 c-48 -23 -69 -45 -90 -95 -13 -30 -15 -95 -15 -399 0
-332 2 -367 19 -404 34 -75 109 -111 209 -101 69 7 116 39 145 97 22 44 22 52
22 415 l0 370 -25 43 c-34 60 -77 84 -158 89 -51 3 -76 -1 -107 -15z"/>
</g>
</svg>
